<?xml version="1.0" encoding="utf-8"?>
<!-- Generator: Adobe Illustrator 28.3.0, SVG Export Plug-In . SVG Version: 6.00 Build 0)  -->
<svg version="1.1" id="Layer_2_00000148651026365915968540000016551020636935579565_"
	 xmlns="http://www.w3.org/2000/svg" xmlns:xlink="http://www.w3.org/1999/xlink" x="0px" y="0px" viewBox="0 0 1106.8 1080"
	 style="enable-background:new 0 0 1106.8 1080;" xml:space="preserve">
<style type="text/css">
	.st0{fill:#DB0019;}
</style>
<g>
	<path class="st0" d="M921.4,539.7c-0.4,1.6-1.7,2.3-2.6,3.3c-21.4,20.9-42.8,41.8-64.2,62.7c-14.9,14.5-29.7,29.1-44.7,43.5
		c-2.7,2.6-2.3,3.9,0.1,6.2c6,5.6,11.7,11.5,17.7,17.1c2.2,2.1,2,3.2-0.1,5.2c-44.4,43.2-88.7,86.5-133,129.8
		c-2.2,2.2-3.4,2.5-5.7,0.1c-5.6-5.8-11.7-11.1-17.1-17c-2.9-3.1-4.3-2.4-7,0.2c-35.9,35.2-71.9,70.2-107.8,105.5
		c-3.1,3-4.5,2.6-7.4-0.1C429.3,778.5,308.9,660.9,188.4,543.5c-3.1-3-2.6-4.5,0.2-7.2C309,418.9,429.5,301.4,549.8,183.9
		c3.1-3,4.5-2.6,7.4,0.1c120.3,117.6,240.8,235.1,361.2,352.6C919.4,537.6,920.4,538.7,921.4,539.7L921.4,539.7z M553.2,674.8
		c1-0.8,1.8-1.5,2.5-2.2c44.5-43.4,88.9-86.8,133.4-130c2.2-2.1,2.1-3.2,0-5.2c-44.4-43.2-88.7-86.5-133-129.8
		c-2.3-2.2-3.4-2.2-5.7,0c-44.2,43.2-88.4,86.4-132.7,129.5c-2.5,2.4-2.5,3.5,0,5.9c16.1,15.5,32,31.1,48,46.7
		c28.1,27.5,56.3,54.9,84.4,82.4C551.1,672.9,552.1,673.8,553.2,674.8L553.2,674.8z"/>
</g>
</svg>
