<?xml version="1.0" encoding="UTF-8"?>
<svg id="Layer_2" data-name="Layer 2" xmlns="http://www.w3.org/2000/svg" viewBox="0 0 1106.77 1080">
  <defs>
    <style>
      .cls-1 {
        fill: #da0019;
      }

      .cls-1, .cls-2, .cls-3 {
        stroke-width: 0px;
      }

      .cls-2 {
        fill: #010101;
      }

      .cls-3 {
        fill: #fefefe;
      }
    </style>
  </defs>
  <g id="Layer_1-2" data-name="Layer 1">
    <g>
      <path class="cls-1" d="M1106.69,540.45c0,178.47-.01,356.94.09,535.42,0,3.37-.78,4.13-4.24,4.13-366.1-.09-732.2-.09-1098.3,0-3.46,0-4.24-.76-4.24-4.13C.09,718.62.09,361.38,0,4.13,0,.76.78,0,4.24,0c366.1.09,732.2.09,1098.3,0,3.46,0,4.24.76,4.24,4.13-.1,178.77-.09,357.54-.09,536.32ZM921.39,539.7c-.99-1.02-2.02-2.11-3.08-3.15-120.41-117.51-240.83-235-361.18-352.57-2.82-2.76-4.28-3.16-7.37-.14-120.31,117.58-240.72,235.06-361.19,352.49-2.8,2.73-3.31,4.15-.18,7.19,120.51,117.41,240.92,234.92,361.26,352.49,2.83,2.77,4.3,3.15,7.38.13,35.85-35.22,71.89-70.25,107.77-105.45,2.67-2.62,4.1-3.31,6.99-.18,5.44,5.9,11.56,11.2,17.12,17,2.3,2.4,3.48,2.05,5.68-.11,44.27-43.33,88.62-86.6,133.02-129.81,2.09-2.03,2.32-3.14.06-5.22-6.03-5.56-11.69-11.51-17.71-17.07-2.48-2.29-2.81-3.59-.13-6.16,15.04-14.38,29.85-28.99,44.74-43.51,21.41-20.89,42.82-41.78,64.21-62.69.94-.92,2.23-1.61,2.61-3.26Z"/>
      <path class="cls-3" d="M921.39,539.7c-.38,1.64-1.67,2.33-2.61,3.26-21.39,20.91-42.8,41.8-64.21,62.69-14.89,14.53-29.7,29.13-44.74,43.51-2.69,2.57-2.35,3.87.13,6.16,6.03,5.56,11.69,11.51,17.71,17.07,2.25,2.08,2.02,3.19-.06,5.22-44.4,43.21-88.74,86.48-133.02,129.81-2.2,2.15-3.38,2.51-5.68.11-5.56-5.8-11.68-11.1-17.12-17-2.88-3.13-4.32-2.44-6.99.18-35.88,35.19-71.93,70.22-107.77,105.45-3.07,3.02-4.54,2.64-7.38-.13-120.35-117.57-240.75-235.08-361.26-352.49-3.13-3.05-2.62-4.47.18-7.19,120.47-117.43,240.88-234.91,361.19-352.49,3.09-3.02,4.55-2.62,7.37.14,120.35,117.57,240.77,235.06,361.18,352.57,1.07,1.04,2.09,2.13,3.08,3.15ZM553.19,674.77c.98-.85,1.81-1.5,2.55-2.22,44.45-43.36,88.88-86.75,133.4-130.05,2.15-2.09,2.12-3.16-.01-5.23-44.4-43.2-88.74-86.46-133-129.8-2.3-2.25-3.43-2.18-5.69.03-44.16,43.23-88.38,86.39-132.69,129.46-2.47,2.4-2.45,3.53,0,5.89,16.09,15.47,32.01,31.11,47.98,46.7,28.14,27.46,56.29,54.93,84.44,82.39.95.92,1.93,1.81,3.02,2.82Z"/>
      <path class="cls-2" d="M553.19,674.77c-1.09-1.02-2.08-1.9-3.02-2.82-28.15-27.46-56.29-54.93-84.44-82.39-15.97-15.59-31.89-31.23-47.98-46.7-2.46-2.36-2.48-3.5,0-5.89,44.31-43.07,88.54-86.24,132.69-129.46,2.26-2.21,3.4-2.28,5.69-.03,44.26,43.33,88.6,86.6,133,129.8,2.13,2.08,2.16,3.14.01,5.23-44.51,43.31-88.94,86.69-133.4,130.05-.74.72-1.57,1.37-2.55,2.22Z"/>
    </g>
  </g>
</svg>